IKResults
version=1
nRows=13
nColumns=40
inDegrees=yes

Units are S.I. units (second, meters, Newtons, ...)
Angles are in degrees.

endheader
time	pelvis_tilt	pelvis_list	pelvis_rotation	pelvis_tx	pelvis_ty	pelvis_tz	hip_flexion_r	hip_adduction_r	hip_rotation_r	knee_angle_r	knee_angle_r_beta	ankle_angle_r	subtalar_angle_r	mtp_angle_r	hip_flexion_l	hip_adduction_l	hip_rotation_l	knee_angle_l	knee_angle_l_beta	ankle_angle_l	subtalar_angle_l	mtp_angle_l	lumbar_extension	lumbar_bending	lumbar_rotation	arm_flex_r	arm_add_r	arm_rot_r	elbow_flex_r	pro_sup_r	wrist_flex_r	wrist_dev_r	arm_flex_l	arm_add_l	arm_rot_l	elbow_flex_l	pro_sup_l	wrist_flex_l	wrist_dev_l
      0.00000000	     16.50197875	     -5.20148311	      4.60558389	     -0.91508704	      0.94826267	      1.00689889	     -9.60919843	      6.59887095	    -20.62057037	    -15.92134160	     -0.27787983	      6.27595996	      1.65507175	     -2.47415213	     -9.76625363	      7.66546299	     -0.61546524	    -57.65329555	     -1.00623983	      2.28315611	     16.81856159	     -0.38015875	    -23.88439953	      5.05954402	     -1.11653207	      1.69904869	    -10.01060974	     -6.39749260	     17.08808780	     89.95437384	      0.00000000	      0.00000000	      5.85973716	      8.67359921	     10.02549604	     22.94488419	     89.95437384	      0.00000000	      0.00000000
      0.01000000	     16.69263261	     -4.88786894	      4.39182276	     -0.90650178	      0.94915065	      1.00850591	    -10.55064231	      6.44711030	    -20.25488072	    -15.69896489	     -0.27399863	      6.60412775	      1.76576971	     -2.54847865	     -8.76434652	      7.27370185	     -0.55483855	    -58.19127536	     -1.01562935	      3.21289574	     17.08814817	     -0.35562692	    -24.17176677	      4.64442701	     -0.68712034	      2.61531069	    -10.23913276	     -6.34810610	     17.74871770	     89.95437384	      0.00000000	      0.00000000	      5.45026978	      8.47340173	      9.77929985	     21.69562047	     89.95437384	      0.00000000	      0.00000000
      0.02000000	     16.80521633	     -4.56725593	      4.17033892	     -0.89785288	      0.94986724	      1.01036837	    -11.34952950	      6.24013289	    -20.32429047	    -15.58130494	     -0.27194507	      6.87110055	      1.68508192	     -2.55557642	     -7.61948888	      6.99592885	     -0.24364982	    -58.63392110	     -1.02335498	      3.86726269	     17.12662654	     -0.35389907	    -24.37880661	      4.16719872	     -0.30391229	      3.51341307	    -10.41727789	     -6.33326054	     18.44739762	     89.95437384	      0.00000000	      0.00000000	      4.80296090	      8.34959046	      9.61953039	     20.90145890	     89.95437384	      0.00000000	      0.00000000
      0.03000000	     16.86120063	     -4.17454302	      3.83177509	     -0.88932967	      0.95065664	      1.01201074	    -12.20043456	      5.99485867	    -19.51617635	    -15.22915922	     -0.26579897	      7.16746796	      1.56787583	     -2.61438300	     -6.64138619	      6.35733907	     -0.21707653	    -58.58123791	     -1.02243548	      5.19593251	     17.45605964	     -0.01325573	    -24.52296694	      3.63218114	      0.35791985	      4.11333447	    -10.70278267	     -6.42612999	     19.58053768	     89.95437384	      0.00000000	      0.00000000	      4.56113003	      8.16339837	      9.14619509	     19.45499769	     89.95437384	      0.00000000	      0.00000000
      0.04000000	     16.79693037	     -3.90228242	      3.66817505	     -0.88081465	      0.95109516	      1.01367137	    -12.76731799	      5.80435033	    -19.52081422	    -15.15003093	     -0.26441792	      7.37820089	      1.49053641	     -2.60374628	     -5.33002044	      6.11324861	      0.07786999	    -58.56740316	     -1.02219402	      5.75060307	     17.45144530	      0.02433005	    -24.51278939	      3.22714784	      0.64205144	      5.02778137	    -10.89343365	     -6.40825445	     20.21773211	     89.95437384	      0.00000000	      0.00000000	      3.82417660	      8.06831791	      8.96556697	     18.82788475	     89.95437384	      0.00000000	      0.00000000
      0.05000000	     16.64487757	     -3.61828769	      3.52270684	     -0.87239113	      0.95141261	      1.01521246	    -13.23336383	      5.60846583	    -19.35108156	    -15.05098875	     -0.26268931	      7.63888647	      1.43518685	     -2.60174559	     -3.99043438	      5.79702432	      0.33071822	    -58.29001980	     -1.01735277	      6.32815552	     17.53449126	      0.08281560	    -24.39978728	      2.82560077	      0.88612502	      5.87876633	    -11.09245213	     -6.44196386	     20.97153955	     89.95437384	      0.00000000	      0.00000000	      3.10965189	      7.98378786	      8.74549101	     18.16504032	     89.95437384	      0.00000000	      0.00000000
      0.06000000	     16.51857946	     -3.12498396	      3.16545332	     -0.86404509	      0.95177457	      1.01667177	    -13.75527692	      5.19447012	    -18.36125073	    -14.93002300	     -0.26057806	      8.02043812	      1.23086865	     -2.58195451	     -2.87121283	      4.96368180	      0.27837232	    -57.65979590	     -1.00635328	      7.39875135	     17.79532918	      0.40762312	    -24.34441983	      2.15459314	      1.42251851	      6.46555837	    -11.31966491	     -6.82452517	     22.07798986	     89.95437384	      0.00000000	      0.00000000	      2.57971798	      7.88098184	      8.27916638	     17.38904192	     89.95437384	      0.00000000	      0.00000000
      0.07000000	     16.57270659	     -2.76162888	      2.80753961	     -0.85543398	      0.95236535	      1.01834722	    -14.55330965	      4.98283029	    -17.46196582	    -14.61665444	     -0.25510875	      8.08255113	      0.11840836	     -2.25430574	     -2.01372218	      4.50893536	      0.72556832	    -56.75023513	     -0.99047845	      7.98103184	     17.82135005	      1.98093177	    -24.46244879	      1.60679834	      1.97084613	      7.15984775	    -11.41521466	     -7.77664016	     22.97137148	     89.95437384	      0.00000000	      0.00000000	      1.77937609	      7.93450603	      7.20978152	     17.12815636	     89.95437384	      0.00000000	      0.00000000
      0.08000000	     16.28933487	     -2.59625968	      2.74275096	     -0.84698245	      0.95215343	      1.01972235	    -14.73920543	      4.88703075	    -17.48183239	    -14.77725443	     -0.25791174	      8.26607591	     -0.01054052	     -2.22368132	     -0.59893400	      4.37111887	      1.00125208	    -55.92495594	     -0.97607462	      8.29211082	     17.63377374	      2.01035971	    -24.20632371	      1.34560585	      2.12032938	      7.90333648	    -11.61911709	     -7.88442404	     23.82594458	     89.95437384	      0.00000000	      0.00000000	      0.89685142	      7.88705071	      7.10469413	     16.95059161	     89.95437384	      0.00000000	      0.00000000
      0.09000000	     16.37044781	     -1.98882071	      2.32912102	     -0.83848311	      0.95256832	      1.02114843	    -15.49693043	      4.30380034	    -16.77691022	    -14.65966503	     -0.25585942	      8.75518424	     -0.32616683	     -2.01445974	      0.01470004	      3.50383282	      1.30269952	    -54.46970035	     -0.95067561	      9.20753830	     17.82449590	      2.64792309	    -24.38919377	      0.53958330	      2.67446775	      8.44990256	    -11.66287711	     -9.13792516	     24.92448548	     89.95437384	      0.00000000	      0.00000000	      0.14138534	      7.92131788	      6.28176718	     16.82812010	     89.95437384	      0.00000000	      0.00000000
      0.10000000	     16.02803879	     -1.90815816	      2.29326724	     -0.83039189	      0.95198659	      1.02250791	    -15.53514751	      4.29251808	    -16.75996339	    -14.90508243	     -0.26014276	      8.89920079	     -0.43617017	     -1.98354851	      1.45367519	      3.48107053	      1.65459435	    -53.34334473	     -0.93101700	      9.39151686	     17.61212226	      2.67053799	    -24.11831194	      0.37106047	      2.81637524	      9.14181220	    -11.84317394	     -9.23125876	     25.87677540	     89.95437384	      0.00000000	      0.00000000	     -0.72981806	      7.91679920	      6.17891165	     16.78442955	     89.95437384	      0.00000000	      0.00000000
      0.11000000	     16.15079067	     -1.32076644	      1.82908323	     -0.82140977	      0.95209526	      1.02382550	    -16.35661914	      3.71250079	    -15.93797602	    -14.83783991	     -0.25896916	      9.66469896	     -0.72848386	     -1.91672915	      1.84546550	      2.68808800	      2.15942204	    -51.47963293	     -0.89848909	     10.36112416	     17.82598574	      2.96653471	    -24.28539306	     -0.43301901	      3.42136645	      9.40095680	    -12.00573260	    -10.08778007	     27.35833750	     89.95437384	      0.00000000	      0.00000000	     -1.59293278	      7.94813390	      5.68470498	     16.85449021	     89.95437384	      0.00000000	      0.00000000
      0.12000000	     16.42524797	     -0.87865433	      1.33717138	     -0.81242591	      0.95233951	      1.02531638	    -17.31131723	      3.23810884	    -15.41769884	    -14.75654752	     -0.25755034	      9.87401569	     -1.02483386	     -1.70315921	      2.03332818	      2.27084842	      3.11711506	    -49.39745726	     -0.86214827	     10.38606844	     17.80484932	      3.50357585	    -24.59697701	     -1.10523747	      4.03795732	      9.77964650	    -12.18056907	    -10.60368237	     28.63800923	     89.95437384	      0.00000000	      0.00000000	     -2.39525334	      7.99013596	      5.29270376	     16.89750673	     89.95437384	      0.00000000	      0.00000000
